<?xml version="1.0" encoding="UTF-8" standalone="no"?>
<!-- Created with Inkscape (http://www.inkscape.org/) -->
<!-- Public Domain, https://commons.wikimedia.org/w/index.php?curid=2623146 -->
<svg
   xmlns:svg="http://www.w3.org/2000/svg"
   xmlns="http://www.w3.org/2000/svg"
   version="1.0"
   width="64"
   height="64"
   id="svg2"
   viewbox="0 0 64 64">
  <defs
     id="defs4" />
  <g transform="matrix(1 0 0 -1 25 25)
                translate(-43, -54)">
    <path
      d="M 64.207032,22.328125 L 64.699219,32.734375 L 63.433594,32.734375 C 62.68356,29.359416 61.529264,27.214886 59.970704,26.300781 C 58.41208,25.386763 55.640598,24.929732 51.65625,24.929687 L 43.640625,24.929687 L 43.640625,43.808594 L 45.539063,43.808594 C 51.374978,43.80862 55.664036,44.17776 58.40625,44.916016 C 61.148405,45.654321 63.380825,47.066429 65.103516,49.152344 C 66.826134,51.2383 67.687461,53.74611 67.6875,56.675781 C 67.687461,60.214853 66.374963,63.320319 63.75,65.992187 C 61.124968,68.664064 56.601535,70 50.179688,70 L 30,70 L 30,68.699219 C 32.953121,68.60547 34.839838,68.13672 35.660157,67.292969 C 36.480461,66.449222 36.890617,64.457037 36.890625,61.316406 L 36.890625,31.011719 C 36.890617,28.597698 36.720696,26.968793 36.38086,26.125 C 36.041009,25.281295 35.484369,24.683639 34.710938,24.332031 C 33.937495,23.980515 32.507809,23.74614 30.421875,23.628906 L 30.421875,22.328125 L 64.207032,22.328125 z M 43.640625,67.152344 C 45.703108,67.480471 47.308576,67.644533 48.457032,67.644531 C 51.339822,67.644533 53.947241,66.683597 56.279297,64.761719 C 58.611299,62.839851 59.777313,60.179697 59.777344,56.78125 C 59.777313,53.265642 58.558564,50.658222 56.121094,48.958984 C 53.683569,47.259788 50.589822,46.41018 46.839844,46.410156 C 45.78514,46.41018 44.718734,46.50393 43.640625,46.691406 L 43.640625,67.152344 z "
      style="font-size:72px;font-style:normal;font-weight:normal;fill:#fcbc26;fill-opacity:1;stroke:none;stroke-width:1px;stroke-linecap:butt;stroke-linejoin:miter;stroke-opacity:1;font-family:Times New Roman"
      id="text1899" />
  </g>
</svg>
